/* XPM */
static char *_3cb93d2fe4a4891c2f143682afe61bf96nRB9g29auyRxYy[] = {
/* columns rows colors chars-per-pixel */
"64 64 155 2 ",
"   c #53616E",
".  c #556574",
"X  c #596674",
"o  c #566876",
"O  c #5B6976",
"+  c #576979",
"@  c #5C6C7B",
"#  c #5B717F",
"$  c #636D76",
"%  c #626E7C",
"&  c #61707E",
"*  c #5E6F81",
"=  c #5F7181",
"-  c #647584",
";  c #6A7787",
":  c #667886",
">  c #6B7A85",
",  c #677D8B",
"<  c #6B7D8C",
"1  c #747F89",
"2  c #6A7F90",
"3  c #6D808F",
"4  c #73838E",
"5  c #79868F",
"6  c #6E8291",
"7  c #718492",
"8  c #7B8692",
"9  c #758897",
"0  c #7C8A95",
"q  c #768C9A",
"w  c #798D9C",
"e  c #7B919F",
"r  c #7E94A2",
"t  c #828C95",
"y  c #83929D",
"u  c #89939D",
"i  c #8296A4",
"p  c #8B97A1",
"a  c #8399A7",
"s  c #8B9AA4",
"d  c #859BA9",
"f  c #8A9EAC",
"g  c #949EA7",
"h  c #959FA8",
"j  c #8A9FB0",
"k  c #86A0AF",
"l  c #8AA1AF",
"z  c #96A4AC",
"x  c #8BA2B2",
"c  c #93A6B3",
"v  c #93A9B6",
"b  c #9BABB6",
"n  c #95ADBD",
"m  c #99AEBD",
"M  c #95B0BF",
"N  c #9BB1BE",
"B  c #A1B1BD",
"V  c #A8B6BF",
"C  c #97AEC0",
"Z  c #9AAFC0",
"A  c #97B1C1",
"S  c #9CB5C4",
"D  c #9EB8C7",
"F  c #9CB7C8",
"G  c #9FB9C9",
"H  c #A1B7C5",
"J  c #A6BBC7",
"K  c #ACBBC6",
"L  c #A4BDCD",
"P  c #A8BFCE",
"I  c #A5BED1",
"U  c #A8BFD3",
"Y  c #A6C0CF",
"T  c #A9C1CF",
"R  c #B0C3CD",
"E  c #A7C1D0",
"W  c #AAC5D6",
"Q  c #AAC5D5",
"!  c #ADC4D4",
"~  c #AFC6D4",
"^  c #ACC6D7",
"/  c #AFC6D6",
"(  c #A9C2D2",
")  c #AAC7D9",
"_  c #B4C6D2",
"`  c #B0C6D4",
"'  c #B1C7D5",
"]  c #B1C5D3",
"[  c #B4C8D3",
"{  c #B2C8D5",
"}  c #B3C9D6",
"|  c #B6C8D4",
" . c #B6C9D7",
".. c #B4CAD7",
"X. c #B4C9D6",
"o. c #B9CBD7",
"O. c #BBCDD7",
"+. c #BACBD6",
"@. c #B0C7D9",
"#. c #B2C9D9",
"$. c #B5CBD8",
"%. c #B7CAD9",
"&. c #B7CDDA",
"*. c #B5CDDC",
"=. c #B9CBD9",
"-. c #BBCDD9",
";. c #B8CEDB",
":. c #BACCDA",
">. c #BDCFD9",
",. c #BCCEDA",
"<. c #BDCFDB",
"1. c #BBCDDA",
"2. c #B5D1DD",
"3. c #BFD0D8",
"4. c #BDD1DA",
"5. c #BCD0DB",
"6. c #BFD1DB",
"7. c #BDD0DE",
"8. c #BED2DD",
"9. c #BED6E2",
"0. c #BCD8E3",
"q. c #C3D4DC",
"w. c #C1D5E2",
"e. c #C7DBE4",
"r. c #C6D9E7",
"t. c #C5DBE6",
"y. c #C4DAE7",
"u. c #C7DBE6",
"i. c #C5DCE4",
"p. c #C6DDE5",
"a. c #C6DCE7",
"s. c #C7DEE6",
"d. c #C4DBE6",
"f. c #C8DCE7",
"g. c #C9DCE6",
"h. c #C5DBE8",
"j. c #C5DBE9",
"k. c #C7DAE8",
"l. c #C5DDE9",
"z. c #C7DDE8",
"x. c #C6DCE9",
"c. c #C6DCEA",
"v. c #C7DDEA",
"b. c #C6DEE8",
"n. c #C6DCE9",
"m. c #C8DBE9",
"M. c #C9DDE8",
"N. c #C9DCEB",
"B. c #CADDEC",
"V. c #CBDEEC",
"C. c #C9DBE9",
"Z. c #CFE1ED",
"A. c #CAE0EC",
"S. c #D3E1EA",
"D. c #D2E3ED",
/* pixels */
". . . . . . . . . . @ . . . . . X . . . . . . . O X . O O X . . . . . . . . 1 t 8 O . X . . . . . . . . . $   . . . . . . O X O ",
"a a a a a a a a a a f d a a d a a a a a d d d a y a w q q i a a a a a i f B V c i a a d a a a a a a a d r i i a a d a a a 3 & r ",
"p.c.p.c.c.c.c.c.f.p.c.N.e.c.c.p.c.c.c.c.e.h.p.c.h.c.v O 7 :.B.h.c.N.c.p.Z.S.e.e.h.c.c.p.c.c.c.h.c.c.m.p.p.e.e.e.c.c.c.B.$.3 O m ",
"( Q ! Q ( Q Q ( Q ( W Y W ( W W Q Q Q ( @.#.( Q ( ~ x O 6 H ~ ( Q ( } 8.O.Q Q Q W ( E W Q ~ Q W ( W Q ( W ~ Q ( ( W ( W H 6 O v ",
"L ( E I E U Y I I E P ( L I L E Y E L E ..:.Y I L Y l @ 6 D ( I U P o...I E L I Y Y I L E I L L I Y I Y P Y I E L L P Q D < ; H ",
"E Y I ( Y Y E Y ( E E Y ( E E E Y E } ..%.E I E E ( x O 7 D E Y E I ( E Y E ( ( E Y E ( Y ( E E Y E Y E E E T E E ( Y ( D s t B ",
"Y E L S L E E E E E E ( Y ( E Y I ` 3.} Y E Y E Y ( x @ 6 D ( Y Y I E E E E E E E E ( E T L D L E E E E E E Y E ( ( L E T z > x ",
"Y E H b H ( Y ( E E E E E E E ( =.,.~ E Y E E E Y ( x O 7 D Q ( ( E E E ( E E E E E E Y ( S b L ( Y ( E E E E ( E E ! ,._ 0 O x ",
"E E L H L E E E E E E E E E I ,.,.~ I Y ( E Y E Y ( x @ 7 D ( Y E Y E E E E E ( E E E ( E L H L E E E E ( ( ( E I T 3.,.L < @ x ",
"E Y E ( E Y I E ( E E E L ~ o.:.( I ( E Y Y E Y L ( x O 7 D ( Y E E Y E E E E E E E E Y E ( ( E E E E E ( E E Y ~ :...Q D 6 @ x ",
"..L E Y T E Y Y E E Y E ! 3.} ( Y E Y E E Y E E P ( x O 7 D ( Y Y E P Y E E E Y Y E Y E L E Y ( P P Y ( E E E ` 3.} Y T D 3 @ x ",
"Q E ( E E P Y E P E E Y E ~ L Y E E ( ( Y I L E E E v & 6 D ( Y ( E ( ( Y I E E E Y ( E ( Y E Y ( P L Y ( E P ~ ` I E ( D 3 @ x ",
"E P Y L Y E E Y L Y Y I E L ( Y Y E E Y E Y Y L I ! B & 6 D E Y L Y Y Y E L L E L Y L E L Y L Y Y E Y Y L H Y E L Y Y ( D 6 @ x ",
"Q Q W Q W Q ( Q Q ( ! T Q ( Q ( Q E Q E E W U E [ %.x . 6 G W ( Q Q Q Q ( E T ! ( ( Q ( Q ( Q Q Q E ( W H m L ! Q Q ( W D 3 O x ",
"G D D D D H G D G H H G D H H G H D G D G D L R P D f : q A H D D D D H G H D G D D H D H D D D H H D G N v S G D D D H A 7 @ x ",
"7 7 7 7 7 7 7 7 7 6 7 6 6 7 7 7 7 6 7 7 7 6 y y 3 7 7 9 9 7 7 7 7 7 7 7 7 7 7 7 7 7 7 6 7 6 7 7 7 3 7 7 7 7 7 7 7 7 7 7 9 < & 9 ",
". . . . . . . . . . . @ O O O . . . . . . . . . . . . . . . . . . . . . . . . . . . . % X @ . . . 8 1 . . . . . . . . . . . o . ",
"N N N N N m N N N N S c : : c N N N N N N N N N N N N N N N N N N N N N m N N N N N N e O r m m H R P N N N N N N N N N N N m m ",
"p.m.p.m.c.c.c.c.c.h.A.L - - T A.p.c.c.f.c.h.c.p.c.c.c.m.p.c.c.c.c.c.m.c.c.c.c.p.c.c.e.i . r f.D.g.f.e.h.c.c.p.c.c.c.p.c.p.p.c.c.",
"L I D m H L L L L I E n : : n E G m S I L I I I L L L I L L L N n I L L L L L L L L L e . d ..} Y I Y I L I L L L L L L L L L L ",
"Y Q D m L ( Y E T Y ( n : : n W L m H ( ( Y E P ( E ( ( Y Q E N S E E E E ( E ( E E L a t B ` E T T ( P E E E E E E ( T ( ( T E ",
"( I I L I E ( E E Y Q n : : A Q L E Y Y E E Y E E Y E E E I Y I P E Y E E E E E E E L c p f L Y Y Y E E E E E E E E Y L E Y Y Y ",
"L Y E ( E Y E ( E Y W n - : n ( Y E E E Y E E ( ( E ( ( Y Y E E Y Y L E E ( ( E Y ! :.b > w L ( Y Y E E T E E E E E Y ( E E E Y ",
"Y E E ( E E Y Y E E ( n : : n ( Y ( E ( E E Y E E E E L Y E E E E E E Y Y E E ( I ..:.i X r L ( Y L Y ( E Y E E Y Y E E E ( Y E ",
"E Y E E E E E E Y Y ( n - : Z ( Y Y E E E E Y P E E Y Y ( E E E E E E E Y Y E E Y ( ( e O r L E Y E Y Y E ( E Y E E E Y E E E E ",
"E ( E ( Y E E E E I Q n : : C ( Y E E E ( E E ( Y Y L E E ( E E E E E ( Y Y Y Y Y E L r O e L ( Y E E E L S L E E ( E ( Y E E E ",
"Y E E E E T E E E Y ! n - : A Q Y ( E ( E ( E Y ( E ( E Y E E E Y P E Y E E E ( E E L r O r L ( Y E E ( S b L ( E E E E ( E T ( ",
"E E E ( T Y L Y ( L Q n - : n ( Y Y Y Y T P ( Y E L L Y ( ( E E E E ( ( Y E Y Y Y ( L r O r L ( L E ( ( L L L ( ( P E ( E E E E ",
"Y P Y E Y Y ( T Y L E n : - A ( I E I E E E Y E P Y E I Y Y L L L Y E L Y L Y ( I E L r O e L ( E Y Y Y E E Y Y Y Y L Y P E T ( ",
"Q T ( Q Q E :.,.( ( ~ m - : n ~ ( ( Q ( E W ! Q Q ( Q ( Q ( Q ( Q ( ( Q ( ( ( Q ( Q Y e O e E Q ( ( ( ( ( ( ( ( ( ( ( ! Q Q ( $.",
"n n m n S L P N n n m x : : x M m m v D H n n n n n m n C n n m n n n n n m n n n m n w O r n n n n n n n n n n C n n n v S J P ",
": - - 0 g 0 < : : : : < & & , - - - 8 s 4 - : : : : : : : : : : : : : : : : : : : : , q @ , : : : : : : : : : : : - : = 4 g 0 , ",
"@ - t u 4 @ @ @ @ @ @ @ @ @ @ @ = y u = O @ @ @ @ @ : O : - + % O + * @ @ @ @ @ @ @ # 6 = O % + @ @ @ @ @ @ @ @ @ @ - 8 s 0 O : ",
"] q.q...T ] ] ~ ] ] ~ ~ ] ~ ~ R +.8.T ] ] ~ ] ] ~ ` x @ 7 L ] P T R ] ~ ] ] ] ] ] ] ~ ] ~ P P ! ] ] ] ] ] ] ~ ] ] ~ 3.q.R 2 @ c ",
"g.e.9.9.9.9.9.9.w.9.9.9.9.9.9.e.w.9.9.9.9.9.9.9.9.y.v O 6 } y.9.9.9.9.9.w.9.w.9.w.0.9.9.9.9.9.9.9.9.9.9.w.9.w.9.y.C.f.w.} 3 O v ",
"` L L I L L L L L L L L L L L L L L L L H L L L L L x O 6 A I L L L L L L L L L L L L L L L L L L L L L L L G ( O._ L L S 3 @ x ",
"Y Y ( ( E E ( E E T ( E ( ( E ( ( ( ( ( ( E E ( E Q l O 7 H Q Y ( ( ( Y E ( T E ( Q ( ( ( E ( E ( Y E Y ( E T Q $.E E Q D 3 @ x ",
"Y E Y E E E E ( Y E E E E ( E E ( ( E E E E Y Y P ( x O 4 D ( E E E E E E L E L ~ ~ I E Y E E E E E E E L E Y Y Y E Y ( S 3 @ x ",
"Y E E E E Y ( E ( L N F ( E E E E E E Y ( E E E ( ( x @ 7 D ( Y E Y E Y E E ! _ ( Y E E ( Y ( E E E E ( E ( Y E E Y E ( D 3 @ x ",
"E E E Y E E E Y ( H m H E Y E E E E E E E E E E I ( x O 7 H ( E E ( E E E ~ _ ( Y ( E E E E E E E E E E Y ( E E E E Y ( D 3 @ x ",
"( E E E ( E E E Y Y Y Y Y E E E E E E E E I Y Y Y ( l @ 7 D ( Y E E E E ~ ] E E Y E E E ( Y E E E E Y E Y E Y P ( E Y Q D 3 @ x ",
"E E E Y E E E Y E E E E Y P E E E Y E E Q } Y E Y Q x O 7 D ( E Y E E E E E ( E ( E Y E Y ( E E Y } ! Y E Y E E Y E Y ( D 3 @ x ",
"Y E E ( E E Y E Y T ( ( E Y E ( E E L E o.,.Y ( Y ( x @ 6 H ( Y E T E E E E E ( Y Y Y Y E E ( E ~ <...E ( E E Y Y Y Y ( D 3 @ x ",
"Y L I Y Y Y Y E ( E E Y E Y Y Y ( L } ....E E E Y Q x @ 7 D T L Y Y E Y ( Y P E E E ( P Y Y Y %...} L E E Y E E E Y Y Q D 4 + x ",
"T E Y E P L E E Y E P ( I Y ( E L ` ,.` Y Y E P Y ( x O 6 H ( Y E Y Y E Y ( E E ( E E E I P ..:.( E E P Y E E L P E L L m , % x ",
"( ( ( Q ( ( T ( ( ( Q ( ( Q E ! :.8.~ Q Q ( ( ( ( ) x @ 7 G W ( ( Q ( T W ( ! ( ( Q Q ( ` 8...Q ( ( E Q Q ( ( ( ( ( W L c < @ x ",
"x x x l j l x l l l l l l k x K H c f l x l l l l x a & 7 x l x l x l x l l x l x l d m K m l l x l l l l l l l l l x f a 6 - a ",
": O @ @ @ @ @ @ @ @ @ @ @ 5 u t @ O @ @ @ @ @ @ @ @ - O @ @ @ @ @ @ @ @ @ @ @ @ O - 0 u 4 X O @ @ @ @ @ @ @ @ @ @ @ @ @ - @ O - ",
"p , 6 6 6 3 3 < 3 3 < 6 4 h i 6 < 3 3 < 3 < 3 6 < 3 < 6 < < 3 3 3 3 < < 3 3 6 6 < s z q X 6 6 3 3 < < 3 3 3 3 3 < 3 3 3 < 3 6 < ",
"w.9.w.w.w.w.w.9.9.9.e.L : 7 J y.9.w.w.w.w.9.9.9.w.w.9.w.9.w.9.w.w.w.w.w.8.9.9.w.8.e.w.r O a 8.w.9.w.9.9.w.w.w.w.w.w.w.w.w.w.w.w.",
"*.*.*.*.*.*.*.*.*.#.%.A - = H 2.*.*.*.*.*.*.*.*.} #.$.*.*.*.*.*.*.*.*.*.*.*.%.$.*.*.#.r X r #.*.*.*.*.*.*.*.*.*.*.*.*.*.*.*.*.*.",
"L L L L L L I L I S v f : - n E L L I L I L L L v v L L I I L L L L L L L I L L L I L e O r H L L L I I L L L I L I L L L I L L ",
"E ( Y Q Y Q Y E ( L H v : : A Q ( E Y ( Y Q ( Y D H E Q E E E T ( E ( ( ( T E E E Y E r O r L ( ( Q E Y E Y Y E E E ( E ( E ( ( ",
"( E ( E ( Y E E L Y W n - - m ! Y Y E Y E L E I ( E Y Y E E T E ( E Y E Y ( E ( Y I L r O r L Y E Y E E ( ( E Y Y ( E E Y E Y E ",
"Y E E E E ( Y Y E Y Q n : - n ( Y E E I ~ ,.E E E E ( Y T E E T E E ( Y Y E E E E E I e O r L E ( Y P E E E ( E Y E E E E E Y E ",
"L Y E ( E Y Y E E Y ( n : - n ( E E ( ~ $.} E E E E E E E Y E E E E Y Y E E E E E E L e O r L E Y E ( E E Y E E E Y Y E E E E Y ",
"E E Y Y E Y E E E Y ( n : : m ( L Y :.o.~ E Y E E Y E E E E Y L I Y Y E E E E E E E L r O r L E Y Y Y E ( E E E E E Y Y E Y Y E ",
"E ( H m G T E E E Y ( n : : M E Y o.:.~ L E E Y E E Y Y Y E Y S n Y E E E E E Y E E L e O w m L E E E E E E E E E Y E Y E Y E Y ",
"E ( G m H ( Y ( ( Y Q n - : n ..,.,.Y Y ( E E P Y ( E E E E ( S S L E Y ( Y E E E E E r O q m L E ( E E E E Y ( ( ( E E ( Y ( E ",
"T Y P E L Y E E Y Y ( m - : S 8.} E L E E ( E ( E Y E ( ( I L E E Y E ( P ( E E E E L e O e L E Y ( E E ( E E E E E Y L ( L Y E ",
"E P E Y ( T Y I E Y ( n : p R } L Y E Y E P Y L P Y Y Y E Y E E E Y P L E L Y ( L Y } s . r L ( I Y Y L Y Y Y E Y Y Y E Y ( Y Y ",
"E ( ( ( ( ( E ( E ( W n < s S Q E E Y ( ( E E ( ( E ( E E ( Y ( E T ( ( P ( ( E Y ` :.f . r Y ( E E E ( E ( ( E E E ( E ( E ( ( ",
"L L L L L L L L L L Y n - : n Y L L L L L L L L L Y L L L L L L L L L L L L L ( .._ T w O e L L L L L L L L L L L L L L L L L L ",
"r r r r r r r r r r i r , , r r r r r r r r r r e e r r r r r r r r r i r r d b b i r q @ w r r r r r r r i r r r r i r i r r r "
};
