/* XPM */
static char *_6220b8794f34751ffef6ee189df75adG0hmagQkXYoVWFRZ[] = {
/* columns rows colors chars-per-pixel */
"64 64 69 1 ",
"  c #020000",
". c #0A0003",
"X c #180214",
"o c #230F02",
"O c #251104",
"+ c #2B1507",
"@ c #2D1F05",
"# c #2A1609",
"$ c #2D1A0C",
"% c #331D0E",
"& c #2F1E11",
"* c #321F11",
"= c #2C2100",
"- c #2F210D",
"; c #39200F",
": c #362214",
"> c #3C2514",
", c #3F2817",
"< c #372518",
"1 c #392619",
"2 c #3D2A1C",
"3 c #230024",
"4 c #30012E",
"5 c #3D013C",
"6 c #3F2B22",
"7 c #402715",
"8 c #402817",
"9 c #422B1B",
"0 c #412E21",
"q c #41262A",
"w c #44292D",
"e c #453224",
"r c #4B3526",
"t c #4F3A26",
"y c #4B3728",
"u c #4C3728",
"i c #4D3828",
"p c #4E3829",
"a c #4E3A2A",
"s c #503B27",
"d c #533B2A",
"f c #543B2A",
"g c #533C2B",
"h c #543C2B",
"j c #533C2C",
"k c #563D2D",
"l c #593F2D",
"z c #56402E",
"x c #58402F",
"c c #5C422F",
"v c #574030",
"b c #5B4331",
"n c #5D4330",
"m c #5F4533",
"M c #5F4633",
"N c #624633",
"B c #634733",
"V c #624735",
"C c #634833",
"Z c #624835",
"A c #644834",
"S c #644935",
"D c #674C37",
"F c #684C37",
"G c #664B38",
"H c #674C39",
"J c #684C38",
"K c #6A4F3C",
"L c #430242",
/* pixels */
"##$$$#$$##$$$#$+>kGZNSx%+$$$$#$#>lGZNSx*#$$$$#$+>kGZNSx%:lGZNSx:",
"9e202292200002r,,nNmVNn,100022922kVmVVk2200002r,,nNmVNn,<xVmVVk2",
">xkkzbxkkdkkzkk::nNNZNk,gghkzbxkkkNNZNxhkdkkzkk::nNNZNk,dlNNZNxg",
">bSNSSNNSSNNSSn,:bZNVZx9ZSNNSSNNSSNNVZNNSSNNSSn,:bZNVZx9ZSNNVZNZ",
"9xNmmmmNZJVmmNc,,xNVmNx9VJVmmmmNZJVNmmmNZJVmmNc,,xNVmNx9VKVNmmmZ",
",xSSZZZVNSSSZZb,,xSSVZx9xSSSZZZVNSSSZZZVNSSSZZb,,xSSZZx9xSSSZZZZ",
"9cSSCSNVNSVSNDb,,nSSNDb9nSVSCSNVNSVSNSNVNSVSNDb,,nSSNDb9nSVSCSmZ",
",xZNNZZSSNZNNSm;,xZNNSb7NVZNNZZSSNZNNZZSSNZNNSm;,bSNNSn,NVZNNZZS",
",xZnNNkyugZnNNb::xVcNmb8rkZnNNkyiiiruuuiiiirryk,>kirryj9rhVcNmjy",
">mSNNZx<<bSNNVc>:NHZSSm,:bSNNZx<<<:<<<<<<,<22,2>>9<22,2,<mHZSSn<",
":kSmNSk:%lSmNSk:+rfidjr%%lSmNSk:$,9999>+OOOOOOoOOOOOOOOo#rfidgr%",
",lSNNSb:<lSNNSb:$***:$*&,lSNNSb:>xHZSJm:%::::::%%::::::*:$**:$%:",
",nNNZNg00kNNZmx,0eeeeee0,nNNZNg00kNmZmx>8ieeeed,,ieeeee09ieeeeee",
":nZNCZNnmcNNZVk,xxcnmVNl,bZNZZNnmcNNZVl:;bmxmmx:;bmnmVNl,bmnmVNn",
",xVNNNNNGHmNmZn9ZJNNVNNm9xVNNNNNGHmNmZn,>bZNNZn,>bZNVNNm9xZNVNNZ",
"9xNVNNVZNJZVNNx9nJZVNNVN9zNVNNVZNJZVNNx,,xNVNNx,,xNVNNVN9lNVNNVZ",
",xSSCZZVNZSSNSx9cSSSNZZm9xSSZZZVNZSSNSb,>xSSCSb,>xSSCZZm9xSSZZZZ",
"9nSSCFVSSSZSCJb8nSVSCFVN9xZSNSVSSSVSNJn>8nZSNJn>8nSSCDVN9xZSNSNS",
",xmxbnmNNbmxxmb7nnmxbnmn,lZmmVmmmbZmmZn;:xZmmZb;:xmxbnmn,lZmNVNZ",
"9deeeeeeeeeeeei90eeeeee0,nZmNNk00kSmNNn,,nZmNNn,,deeeee0,nZmNmNm",
"%*$****$$$$***&%$%$****#:nSmNZx::bSmNZx%%bSmNZx:$*$****#:nSNNZZV",
"dikgdhiddikgdhiddikgdhii,hSNNSk%:kSNNSxhfxSNNSk>idkgdhii,hSNNSNV",
"NZSZSSmZNZSZSSNZNZSZSSNN2lZNNSx<,xZNVVnZNNZNNSn9cZSZSSNN9xZNVNcN",
"NmcmNmNNmmnNNmNNmmnNNmNNukNNZNke,nNNZmNNmmmNZml9cNnNNmNn8nNNZmNN",
"NNNNZZNmZNNNZZNmZNNNZZNmZNNNZZSn,bZNZZNmZNNNZZx9mNNNZZNc,bZNZZNN",
"GJNNmmmNGJNNmmmNGJNNmmmNGJNNmmNm9xVNmmmNGJNNmNc9ZJNNmmNm9xVNmmmZ",
"mSSZVNZZNSSZVNZZNSSZVNZZNSSZVNZm9xZZVNZZNSSZVCx9cDSZVNZm9xZZVVZZ",
"mSZSCSVVNZZSCSVVNZZSCSVVNSZSCSVm9xSSCSVVNSZSNSb9cSZSCSVm9xSSNSNV",
"NZVZNSSSSZVZNSVSSZVZNSSSSVVZNSZN9xZZNSVSNVVZNSn,nZVZNSZN9xSSCSSS",
"VnVnNNxkkkZnNmNNzkZnNNxxNnVnNmNm,lZnNmNZNnVnmVb9nnVnNmNn,kvdgjkz",
"mVZNNNk22xSNNmNn2zSNNNk2bZZNNmVx9mSNVNNNnVZNNNx9xSSNVNSx9e200002",
"ZZNmNZl:*xSmNZSN,xSmNZk,nZNmNZSm:kNbnVNNVZNmNZl9xNmbnVNn%##$$$##",
"mNSNNSx*:lSNNSnNmnSNNSx*>xSNNSmn:$:*:::>cNZNNSnx>*:*:*::##$$$###",
"mmNNVVk22kVNZNnNmmNNVVk22kVNZNmN06292229nmmNZNmm9e2922e,100002r,",
"NNmNZNxkkkNNZNNNNNmNZNxkkkNNZNNNkdkkkbxkNNmmZNZn9kkkzzk,gghkzzk,",
"ZZNNVZNNSSNNVVNNZZNNVZNNSSNNVVNNSSNNSSNNZZNNVVNn9bSNSSx9ZSNNSSc9",
"ZJVNmmmNZJVNmmmNSJVNmmmNZJVNmmmNZJVmmmmNSJVNmmNN9kNNmNx9VJVmmNx,",
"mSSSZZZVNSSSZZZVNSSSZZZVNSSSZZZVNSSSZZZVNSSSZZZm9xSSZZx9xSSSZZb,",
"NSVSCSNVNSVSCSNVNSVSCSNVNSVSCSNVNSVSCSNVNSVSNSNm9xSSNDb9nSVSNDb,",
"SmZNNZVSSmZNNZVSSmZNNZZSSNZNNZVSSmZNNZVSSNZNNZSN9xSNNSn7NVZNNSn:",
"mnVnNmNNnmVnNmNNnmVnNNkyugZnNmNNnnVcNmNmiuirrrur,kiriij9xmVnNNb,",
"ZSZNNNZZVSZNNNZZVSZNNZx<<bSNNNZZVSSZSSSm,112222:>,:<<<<9bSZNNVx,",
"lNZmNSmllNZmNSmlkNZmNSk:%lSmNSmldhdidkhd#oOOOOOo%<9999,9NVZmNSk:",
"*lSNNSb%*lSNNSb%:lSNNSb:<lSNNSb%#&**:$%$*::::::*>xHZSSmVNmZNNSb:",
"0kNNZNge0kNNZNk09nmNZNg00kNNZmx,0eeeeeeeeeeeeeee0kmmVmmNmmmNZmx,",
"mcNNZZNnmcNNZZNl,bZNZZNnmcNNZVk,xxcnmVNnmxcnmVNnmcNNZZNNNNNNZVl,",
"GHmNNNNNGHmmNmNm9xVNNNNNGHmNmZn9ZJNNVNNNGHNNVNNNGHmNNNNNGGmNmZn9",
"NJZVNmVZNJZVNNVN9xNVNNVZNJZVNNx9nJZVNNVZNJZVNNVZNJZVNNVZNJZVNNx,",
"mSSSZZZVNZSSZZZm9xSSZZZVNZSSNSx9xSSSCZZVNZSSCZZVNZSSZZZVNZSSNSb,",
"NSVSNSNVNZVSNSVN9xZSNSNVNZVSNJb8nSVSNSNVNZVSNSVSNZVSNSVSSSZSCJn,",
"NbZmNVNSZnVmmVmb9lZmNVNSZnVmmZb,bnZmNVNSZnVmmVmNVnVmmVmmNbmxxmb:",
"0kSmNmNNbNZmNNk2,nZmNmNNbNZmNNn96kSmNmNNbNZmNNjexNZmNNk0eeeeeei9",
":bSmNZZZVSVmNZx::nSmNZZZVSVmNZx,:bSmNZZZVSVmNZl,mSVmNZx:*:@===-*",
":kSNNSNNNNZNNSk%:kSNNSNNNNZNNSk%:kSNNSNNNNZNNSk,cVZNNSk:.X45L53 ",
"<xZNVNcNmmZNNSx<,xZNVNcNmmZNNSm>:xZNVNcNmmZNNSx2cNZNNSx<<16wwq0:",
"ykNNZmNNNNmNZNke,nNNZmNNNNmNZml,ekNNZmNNNNmNZNhimNmNZNkrddstsik,",
"ZNNNZZNmZNNNZZSn,bZNZZNmZNNNZZx9NNNNZZNmZNNNZZSNZNNNZZSNNNNVSSx,",
"GJNNmmmNGJNNmmNm9xVNmmmNGJNNmNc9ZJNNmmmNGJNNmmmNGJNNmmnSmZVmmNc8",
"mSSZVNZZNSSZVNZm9xZZVNZZNSSZVZx9cDSZVNZZNSSZVVZZNSSZVVZZSZZZVZx,",
"mSZSCSVVNZZSCSVm9xSSCSVVNZZSNSb9cSZSNSVVNZZSNSVVNZZSCSVVSSZDNDb,",
"SZVZNSSSSZVZNSSN9xZZNSSSSZVZNGb7NSSSCSSSSZSSCSSSSZVZNSVZVZVZNSn:",
"kkZnNNxkkkZnNmxg,lZnNNxkkkZnmVb,kkzdgjkzkkzdgjkzkkZnNmNNVnZnNNb>",
"2xSNNNk22xSNNNk<,mSNNNk22xSNNNn,20200902202009022xSNNNNZZNSNNNn,",
"*xZmNZx:%xZmNZx:%xZmNZx:%xZmNZl>#$#$$$$#$$#$$$$#*xZmNSZSZmSmNSl:"
};
